<?xml version="1.0" encoding="utf-8"?>
<!-- Generator: Adobe Illustrator 24.3.0, SVG Export Plug-In . SVG Version: 6.00 Build 0)  -->
<svg version="1.1" id="Layer_1" xmlns="http://www.w3.org/2000/svg" xmlns:xlink="http://www.w3.org/1999/xlink" x="0px" y="0px"
	 viewBox="0 0 200 100" style="enable-background:new 0 0 200 100;" xml:space="preserve">
<g>
	<path d="M47.2,25.45v37.99c0,8.18-6.41,11.12-14.59,11.12c-8.12,0-13.79-2.94-13.79-11.12v-7.21h11.49v5.34
		c0,2.08,0.75,3.31,2.83,3.31s2.83-1.23,2.83-3.31V25.45H47.2z"/>
	<path d="M63.23,73.49H51.48V25.45h11.76V73.49z"/>
	<path d="M94.76,25.45v18.44h7.27V25.45h11.22v48.04h-11.22V53.55h-7.27v19.93H83.54V25.45H94.76z"/>
	<path d="M125.81,25.45l5.24,18.86l4.81-18.86h11.22l-10.26,30.89v17.15h-11.76V56.22l-9.94-30.78H125.81z"/>
	<path d="M148.74,25.45h29.18v9.89h-17.95v9.08h17.42v9.35h-17.42v9.83h18.49v9.89h-29.71V25.45z"/>
</g>
</svg>
